<svg id="Layer_1" data-name="Layer 1" xmlns="http://www.w3.org/2000/svg" viewBox="0 0 2383.94 1683.78"><defs><style>.cls-1{font-size:80px;font-family:Poppins-SemiBold, Poppins;font-weight:600;letter-spacing:0.15em;}.cls-1,.cls-2{fill:#003759;}.cls-3,.cls-5{fill:#fff;}.cls-4{fill:#ea2625;}.cls-5{stroke:#fff;stroke-miterlimit:10;stroke-width:2.85px;}</style></defs><text class="cls-1" transform="translate(646.64 962.82)"><tspan xml:space="preserve">      </tspan><tspan x="0" y="96"> </tspan><tspan x="0" y="192">INDIAN RESTAURANT AND BAR</tspan></text><circle class="cls-2" cx="953.92" cy="773.05" r="228.66"/><circle class="cls-2" cx="1897.33" cy="785.38" r="228.66"/><circle class="cls-2" cx="1425.63" cy="668.23" r="228.66"/><path class="cls-3" d="M890.81,856.56c9.55,6,31.83,15.52,55.58,15.52,43.26,0,56.84-27.54,56.64-48.49-.4-35.2-32.15-50.08-64.77-50.11H919.33V748h19c24.64,0,55.82-12.69,55.82-42.24,0-20.12-12.79-37.75-44-37.75-19.89,0-39.23,8.79-50,16.5L891,660c13.16-9.72,38.61-19.38,65.52-19.38,49.56,0,72,29.19,72,59.82,0,25.87-15.77,47.83-46.22,59v.77c30.8,5.87,55.66,29.23,55.66,64.19,0,40-31.37,75.12-91.36,75.12-28.12,0-52.66-8.73-64.86-17.12Z"/><path class="cls-3" d="M1339.47,716.27c0-31.54,18.93-53.91,49.44-67.28l-.07-1.18c-28-12.89-40-34.34-40-56.12,0-39.48,33.67-66.58,77.8-66.58,48.36,0,72.76,30.28,72.76,61.55,0,21.3-10.59,44.16-41.18,58.51v1.24c31.07,12.19,50.33,34.49,50.33,64.65,0,43.73-37.24,72.91-85.3,72.91C1371.13,784,1339.47,752.85,1339.47,716.27Zm134.72-1.74c0-30.22-21.18-45-55-54.47-29.17,8.28-45.16,27.8-45.16,51.58-1,25.29,18.09,47.53,50.08,47.53C1454.6,759.17,1474.19,740.25,1474.19,714.53Zm-93.08-125.25c-.2,25.11,18.91,38.66,47.62,46.3,21.5-7.15,38-22.6,38-45.52,0-19.78-11.92-40.64-42.39-40.64C1396.34,549.42,1381.11,567.93,1381.11,589.28Z"/><path class="cls-3" d="M1980.49,769.15c0,84.94-31.78,132-87.1,132-48.89,0-82.13-45.79-82.94-128.51,0-84.15,36.3-130.35,87.16-130.35C1950.36,642.26,1980.49,689.41,1980.49,769.15Zm-136,3.55c-.06,65.29,20,102.14,50.79,102.14,34.56,0,51.07-40.4,51.07-104.16,0-61.8-15.65-102-50.82-102C1866.1,668.63,1844.51,704.84,1844.54,772.7Z"/><path class="cls-4" d="M609.34,1130.77a37.59,37.59,0,0,1-37.61,37.61H189.16v0a5,5,0,0,1-.67,0,37.61,37.61,0,1,1,0-75.21c.22,0,.45,0,.67,0v-.36H340.93V877.55L59.45,531.22H700.29L419,877.24V1093.5H566.82a36.26,36.26,0,0,1,4.91-.33A37.59,37.59,0,0,1,609.34,1130.77Z"/><circle class="cls-5" cx="427.17" cy="694.04" r="50.14"/></svg>